<?xml version="1.0" encoding="utf-8"?>
<!-- Generator: Adobe Illustrator 19.0.0, SVG Export Plug-In . SVG Version: 6.00 Build 0)  -->
<svg version="1.1" id="Layer_1" xmlns="http://www.w3.org/2000/svg" xmlns:xlink="http://www.w3.org/1999/xlink" x="0px" y="0px"
	 viewBox="0 0 30 500" style="enable-background:new 0 0 30 500;" xml:space="preserve">
<style type="text/css">
	.st0{fill:#E01F26;}
</style>
<g id="XMLID_3_">
	<polygon id="XMLID_4_" class="st0" points="30.7,238.6 30,237.9 30,239.2 	"/>
	<polygon id="XMLID_5_" class="st0" points="30,0 -0.8,30.8 30,61.6 	"/>
	<polygon id="XMLID_6_" class="st0" points="30.3,299.2 30,298.9 30,299.4 	"/>
	<polygon id="XMLID_7_" class="st0" points="30.3,61.9 30,61.6 30,62.1 	"/>
	<polygon id="XMLID_8_" class="st0" points="31.1,478.8 30,477.7 30,479.9 	"/>
	<polygon id="XMLID_9_" class="st0" points="30,298.9 30,239.2 0.2,269.1 	"/>
	<polygon id="XMLID_10_" class="st0" points="28.6,122 0.6,150 29.4,178.8 0.2,208.1 30,237.9 30,62.1 -0.7,92.8 	"/>
	<polygon id="XMLID_11_" class="st0" points="29.4,357.6 0.2,386.9 29.8,416.5 -0.7,447 30,477.7 30,299.4 0.6,328.8 	"/>
	<polygon id="XMLID_12_" class="st0" points="30,500 30,479.9 9.9,500 	"/>
</g>
</svg>
